<svg width="30" height="37" viewBox="0 0 30 37" fill="none" xmlns="http://www.w3.org/2000/svg">
<path d="M14.7939 36.9065L2.69597 33.9422L0 7.25296H29.6241L26.9253 33.938L14.7939 36.9065Z" fill="#39424E" fill-opacity="0.37"/>
<path d="M24.6148 32.2389L26.9211 9.4353H14.812V34.6376L24.6148 32.2389Z" fill="#39424E" fill-opacity="0.37"/>
<path d="M6.18045 19.334L6.51284 22.6073H14.8121V19.334H6.18045Z" fill="#130F26"/>
<path d="M5.5126 12.7086L5.84973 15.982H14.8121V12.7086H5.5126Z" fill="#130F26"/>
<path d="M14.812 27.8351L14.7958 27.8389L10.6654 26.8545L10.4014 24.2439H6.67853L7.19811 29.3835L14.795 31.2449L14.812 31.2407V27.8351Z" fill="#130F26"/>
<path d="M6.97183 0H11.4636V1.65791H8.85022V3.31582H11.4636V4.97373H6.97183V0Z" fill="#39424E" fill-opacity="0.37"/>
<path d="M12.362 0H16.8538V1.44166H14.2404V1.72999H16.8538V5.04581H12.362V3.53207H14.9754V3.24374H12.362V0Z" fill="#39424E" fill-opacity="0.37"/>
<path d="M17.7521 0H22.2439V1.44166H19.6305V1.72999H22.2439V5.04581H17.7521V3.53207H20.3655V3.24374H17.7521V0Z" fill="#39424E" fill-opacity="0.37"/>
<path d="M23.4199 19.3339L24.0894 12.7086H14.7993V15.982H20.0251L19.6876 19.3339H14.7993V22.6072H19.366L18.9355 26.8525L14.7993 27.8378V31.2433L22.4022 29.3835L22.4579 28.8305L23.3294 20.2129L23.4199 19.3339Z" fill="#130F26"/>
</svg>
