<svg width="33" height="30" viewBox="0 0 33 30" fill="none" xmlns="http://www.w3.org/2000/svg">
<path d="M32.2918 13.6633L17.9217 0.565834C17.0947 -0.188611 15.7524 -0.188611 14.9244 0.565834L11.9404 3.28572L15.7257 6.73603C16.6054 6.46513 17.614 6.64683 18.3153 7.28606C19.0199 7.92925 19.2178 8.85651 18.9133 9.66099L22.5614 12.9862C23.444 12.7091 24.4623 12.8884 25.1672 13.532C26.1524 14.4296 26.1524 15.8845 25.1672 16.7828C24.1817 17.6811 22.5856 17.6811 21.5997 16.7828C20.8587 16.1067 20.6756 15.1146 21.0508 14.2825L17.6487 11.1814L17.6483 19.3421C17.8885 19.4507 18.1152 19.5952 18.3153 19.7769C19.3005 20.6745 19.3005 22.1294 18.3153 23.0284C17.3298 23.9263 15.7329 23.9263 14.7489 23.0284C13.7637 22.1294 13.7637 20.6745 14.7489 19.7769C14.9923 19.5554 15.2739 19.3878 15.5744 19.2752V11.0385C15.2739 10.9266 14.9926 10.7601 14.7489 10.5369C14.0024 9.8575 13.8229 8.85914 14.2054 8.02372L10.4743 4.62213L0.62104 13.6027C-0.207013 14.3578 -0.207013 15.5813 0.62104 16.3358L14.9912 29.4336C15.8185 30.188 17.1604 30.188 17.9889 29.4336L32.2918 16.3967C33.1195 15.6419 33.1195 14.4177 32.2918 13.6633Z" fill="#39424E" fill-opacity="0.37"/>
</svg>
