<svg width="38" height="37" viewBox="0 0 38 37" fill="none" xmlns="http://www.w3.org/2000/svg">
<path d="M34.2017 28.5152C32.1814 28.4642 30.6156 28.6687 29.3024 29.2306C28.9236 29.3838 28.3174 29.3839 28.2669 29.8692C28.469 30.0737 28.4942 30.4057 28.671 30.6867C28.9743 31.1974 29.5044 31.8873 29.9843 32.245C30.5145 32.6536 31.045 33.0623 31.6004 33.42C32.5854 34.0331 33.6966 34.3906 34.6562 35.0038C35.212 35.3611 35.7673 35.8212 36.3229 36.2044C36.6008 36.4086 36.7775 36.7408 37.1311 36.8685V36.7919C36.9543 36.5619 36.9037 36.2299 36.7271 35.9744C36.4747 35.719 36.222 35.489 35.9695 35.2336C35.237 34.2374 34.328 33.3689 33.343 32.6536C32.535 32.0916 30.7671 31.3253 30.4388 30.3801C30.4388 30.3801 30.4135 30.3546 30.3883 30.3291C30.9439 30.278 31.6004 30.0737 32.1309 29.9203C32.9895 29.6904 33.7724 29.7415 34.6562 29.5117C35.0602 29.4094 35.4644 29.2817 35.8684 29.154V28.9242C35.414 28.4642 35.0856 27.8513 34.6057 27.417C33.3178 26.2928 31.9035 25.1945 30.4388 24.275C29.6558 23.7641 28.6457 23.4319 27.8123 22.9978C27.5094 22.8442 27.0042 22.7678 26.8275 22.5123C26.3728 21.9503 26.1203 21.2096 25.792 20.5454C25.0599 19.1402 24.3525 17.5822 23.7212 16.1007C23.2668 15.1044 22.9889 14.1081 22.4333 13.1885C19.8322 8.84592 17.0037 6.21484 12.66 3.63473C11.7256 3.09835 10.6145 2.86839 9.42754 2.58746C8.79635 2.56182 8.16484 2.51086 7.53349 2.48522C7.12949 2.30637 6.72533 1.82112 6.37171 1.59115C4.93253 0.671447 1.22001 -1.32085 0.159318 1.31023C-0.52257 2.97064 1.16947 4.6054 1.75028 5.4485C2.17978 6.036 2.73524 6.70009 3.03832 7.36436C3.21513 7.79833 3.26551 8.25842 3.44232 8.71819C3.84648 9.8419 4.22513 11.0938 4.75555 12.1413C5.03344 12.6776 5.33636 13.2396 5.68998 13.7249C5.89198 14.0058 6.24544 14.1337 6.32133 14.5935C5.96787 15.1044 5.94252 15.8707 5.74036 16.5093C4.83128 19.3959 5.1849 22.9721 6.47279 25.0923C6.87678 25.7308 7.83656 27.136 9.12445 26.5995C10.2609 26.1397 10.0083 24.6836 10.3366 23.4064C10.4125 23.0997 10.362 22.8955 10.5134 22.6912C10.5135 22.7167 10.5134 22.7423 10.5134 22.7423C10.867 23.4575 11.2205 24.1473 11.5488 24.8625C12.3317 26.1141 13.6953 27.417 14.8318 28.2855C15.4381 28.7452 15.9178 29.5371 16.6754 29.8182V29.7415H16.6249C16.4733 29.5115 16.2461 29.4094 16.0441 29.2306C15.5895 28.7708 15.0843 28.2088 14.7308 27.6979C13.6703 26.2673 12.7357 24.6836 11.9024 23.0487C11.4984 22.2569 11.1448 21.3883 10.8165 20.5965C10.6649 20.2898 10.6649 19.8302 10.4123 19.677C10.0335 20.2388 9.47807 20.7242 9.20018 21.414C8.72061 22.5124 8.66991 23.8662 8.4931 25.2711C8.39218 25.2968 8.44256 25.2711 8.39202 25.3223C7.58402 25.1178 7.30614 24.275 7.00305 23.5596C6.24543 21.746 6.11917 18.8338 6.77586 16.7393C6.95267 16.2028 7.71029 14.5169 7.40721 14.006C7.25575 13.5206 6.75051 13.2396 6.47278 12.8565C6.14451 12.3711 5.7909 11.7581 5.56371 11.2216C4.95755 9.79111 4.65447 8.20731 3.99794 6.7767C3.69486 6.11244 3.16459 5.42286 2.73524 4.80988C2.25551 4.12014 1.72509 3.63473 1.34627 2.81726C1.22016 2.53634 1.04319 2.07657 1.24519 1.76999C1.29573 1.56567 1.39665 1.48907 1.59881 1.43795C1.92708 1.15686 2.86151 1.51455 3.18977 1.66775C4.12419 2.05076 4.907 2.40861 5.68997 2.94499C6.04343 3.20043 6.42224 3.68585 6.87677 3.81357H7.4072C8.21536 3.99226 9.12444 3.86469 9.88205 4.0945C11.2206 4.52863 12.4326 5.16741 13.5187 5.85715C16.827 7.97732 19.5543 10.9917 21.3979 14.5935C21.701 15.1808 21.8271 15.7175 22.105 16.3305C22.6354 17.5822 23.292 18.8595 23.8222 20.0856C24.3525 21.2861 24.8576 22.5124 25.6152 23.5087C25.9942 24.0449 27.5093 24.326 28.1911 24.6071C28.6962 24.8369 29.4792 25.0413 29.9337 25.3223C30.7923 25.8585 31.651 26.4718 32.4591 27.0593C32.8633 27.3657 34.1258 28.0045 34.2017 28.5152L34.2017 28.5152Z" fill="#39424E" fill-opacity="0.37"/>
</svg>
