<svg width="31" height="28" viewBox="0 0 31 28" fill="none" xmlns="http://www.w3.org/2000/svg">
<path d="M22.8626 19.0372L22.8695 25.2217L16.6332 27.9603V21.7785L22.8626 19.0372ZM30.3471 15.7318V21.9379L25.0281 24.2739L25.0243 18.0962L30.3471 15.7318ZM22.8534 10.7592L22.8603 16.8789L16.6332 19.6019V13.4802L22.8534 10.7592ZM30.3471 7.48085V13.562L25.0228 15.9439L25.0182 9.81211L30.3471 7.48085ZM15.6852 6.7614L21.2514 9.23385L15.4764 11.786L10.0154 9.37234L15.6852 6.7614ZM7.9428 3.32227L13.2518 5.68055L7.56896 8.29081L2.11642 5.88119L7.9428 3.32227ZM23.119 3.35807L28.8372 5.88119L23.7232 8.14152L18.1455 5.66569L23.119 3.35807ZM15.5102 0L20.658 2.27114L15.722 4.59024L10.4177 2.23601L15.5102 0Z" fill="#39424E" fill-opacity="0.37"/>
<path d="M14.4316 13.4803L10.2311 11.6219V19.6546C10.2311 19.6546 5.09408 10.0357 4.61814 9.17171C4.55673 9.06024 4.30418 8.93797 4.23969 8.90825C3.31853 8.48266 0.619507 7.27954 0.619507 7.27954V21.4711L4.3533 23.2275V15.8095C4.3533 15.8095 9.43584 24.4043 9.48728 24.4982C9.53871 24.5921 10.0492 25.498 10.5942 25.8162C11.3204 26.239 14.4324 27.886 14.4324 27.886L14.4316 13.4803Z" fill="#39424E" fill-opacity="0.37"/>
</svg>
