<svg width="38" height="20" viewBox="0 0 38 20" fill="none" xmlns="http://www.w3.org/2000/svg">
<path d="M9.21235 4.19501C10.8298 4.20952 12.0019 4.70763 12.7286 5.68852C13.4553 6.66942 13.6951 8.00919 13.4483 9.70783C13.3525 10.484 13.1399 11.2453 12.8109 11.992C12.4955 12.7388 12.057 13.4122 11.4949 14.0127C10.8093 14.7739 10.076 15.2571 9.2946 15.4622C8.51321 15.6674 7.70426 15.7697 6.86816 15.7697H4.40059L3.61919 19.9428H0.760925L3.70145 4.19501H9.21235ZM33.5905 4.19501C35.208 4.20952 36.3801 4.70763 37.1067 5.68852C37.8334 6.66942 38.0732 8.00919 37.8265 9.70783C37.7306 10.484 37.518 11.2453 37.189 11.992C36.8736 12.7388 36.4351 13.4122 35.873 14.0127C35.1874 14.7739 34.4541 15.2571 33.6727 15.4622C32.8913 15.6674 32.0824 15.7697 31.2463 15.7697H28.7787L27.9973 19.9428H25.139L28.0796 4.19501H33.5905ZM19.542 0L18.74 4.19501H21.2899C22.6881 4.22443 23.7299 4.53192 24.4154 5.11748C25.1146 5.70303 25.3202 6.81612 25.0323 8.45591L23.6546 15.7697H20.7758L22.0918 8.78537C22.2288 8.05311 22.1877 7.53345 21.9684 7.22596C21.7492 6.91848 21.2763 6.76473 20.5496 6.76473L18.2671 6.74277L16.5809 15.7697H13.7432L16.7043 0H19.542ZM6.99154 6.69884C6.82703 6.71335 6.66951 6.7208 6.51859 6.7208L6.10317 6.72078L4.87354 13.2879C4.95579 13.3024 5.03804 13.3098 5.1203 13.3098H5.40818C6.72422 13.3243 7.82104 13.1855 8.69827 12.8925C9.5755 12.585 10.1652 11.5163 10.4667 9.68587C10.7135 8.14843 10.4667 7.26243 9.72643 7.02829C8.99973 6.79415 8.08836 6.68434 6.99154 6.69884ZM31.3696 6.69884C31.2051 6.71335 31.0476 6.7208 30.8967 6.7208L30.4812 6.72078L29.2516 13.2879C29.3339 13.3024 29.4162 13.3098 29.4984 13.3098H29.7863C31.1023 13.3243 32.1992 13.1855 33.0764 12.8925C33.9536 12.585 34.5433 11.5163 34.8448 9.68587C35.0916 8.14843 34.8448 7.26243 34.1045 7.02829C33.3778 6.79415 32.4665 6.68434 31.3696 6.69884Z" fill="#39424E" fill-opacity="0.37"/>
</svg>
