<svg width="32" height="31" viewBox="0 0 32 31" fill="none" xmlns="http://www.w3.org/2000/svg">
<path d="M15.3111 0C7.5137 5.07755e-07 8.00062 3.08716 8.00062 3.08716L8.00931 6.28542H15.4502V7.24569H5.05382C5.05382 7.24569 0.06427 6.72908 0.06427 13.9121C0.0642695 21.095 4.41926 20.8403 4.41926 20.8403H7.01835V17.5071C7.01835 17.5071 6.87825 13.5311 11.3038 13.5311H18.6838C18.6838 13.5311 22.8302 13.5923 22.8302 9.87256V3.72205C22.8302 3.72205 23.4597 0 15.3111 0ZM11.2082 2.15069C11.9485 2.15069 12.5468 2.69697 12.5468 3.37286C12.5468 4.04875 11.9485 4.59502 11.2082 4.59502C10.4679 4.59502 9.86953 4.04875 9.86953 3.37286C9.86953 2.69697 10.4679 2.15069 11.2082 2.15069Z" fill="#39424E" fill-opacity="0.37"/>
<path d="M16.0882 30.8414C23.8856 30.8414 23.3987 27.7543 23.3987 27.7543L23.39 24.556H15.9491V23.5957H26.3455C26.3455 23.5957 31.335 24.1123 31.335 16.9294C31.335 9.74639 26.98 10.0011 26.98 10.0011H24.381V13.3343C24.381 13.3343 24.5211 17.3103 20.0955 17.3103H12.7155C12.7155 17.3103 8.56911 17.2491 8.56911 20.9689V27.1194C8.56911 27.1194 7.93958 30.8414 16.0882 30.8414ZM20.1911 28.6907C19.4508 28.6907 18.8525 28.1444 18.8525 27.4686C18.8525 26.7927 19.4508 26.2464 20.1911 26.2464C20.9314 26.2464 21.5298 26.7927 21.5298 27.4686C21.5298 28.1444 20.9314 28.6907 20.1911 28.6907Z" fill="#39424E" fill-opacity="0.37"/>
</svg>
