<svg width="40" height="28" viewBox="0 0 40 28" fill="none" xmlns="http://www.w3.org/2000/svg">
<path d="M34.4391 16.0504C33.0724 16.0572 31.8846 16.37 30.89 16.8324C30.5251 16.1456 30.1602 15.5335 30.0958 15.0847C30.0242 14.5611 29.9384 14.2415 30.0242 13.6159C30.1101 12.9903 30.4965 12.0994 30.4893 12.0314C30.4822 11.9634 30.4035 11.6438 29.6164 11.637C28.8293 11.6302 28.1495 11.7798 28.0708 11.977C27.9921 12.1742 27.8419 12.623 27.7417 13.0855C27.6057 13.7655 26.1675 16.1932 25.3447 17.4648C25.0799 16.9684 24.8509 16.5332 24.8008 16.1864C24.7293 15.6628 24.6434 15.3431 24.7293 14.7175C24.8152 14.0919 25.2015 13.2011 25.1944 13.1331C25.1872 13.0651 25.1085 12.7454 24.3214 12.7386C23.5344 12.7318 22.8546 12.8815 22.7759 13.0787C22.6972 13.2759 22.6113 13.7383 22.4467 14.1871C22.2822 14.6359 20.3717 18.6889 19.8708 19.7361C19.6132 20.2733 19.3914 20.7017 19.234 20.9941C19.234 20.9941 19.2268 21.0145 19.2054 21.0485C19.0694 21.3002 18.9907 21.4362 18.9907 21.4362C18.9907 21.4362 18.9907 21.4362 18.9907 21.443C18.8834 21.6266 18.7689 21.7966 18.7117 21.7966C18.6687 21.7966 18.59 21.307 18.726 20.6405C19.0122 19.2329 19.6919 17.0432 19.6848 16.9684C19.6848 16.9276 19.8136 16.5468 19.2412 16.3496C18.683 16.1524 18.4827 16.4788 18.4326 16.4788C18.3825 16.4788 18.3467 16.5944 18.3467 16.5944C18.3467 16.5944 18.9693 14.1327 17.159 14.1327C16.0284 14.1327 14.4685 15.3091 13.6958 16.37C13.2092 16.6216 12.1717 17.1588 11.0626 17.7368C10.6404 17.9612 10.204 18.1856 9.79612 18.3965C9.7675 18.3693 9.73888 18.3353 9.71025 18.3081C7.52072 16.0844 3.4708 14.5135 3.64253 11.5282C3.70693 10.4402 4.10047 7.58406 11.4204 4.11594C17.4452 1.29384 22.2392 2.07587 23.0693 3.80993C24.257 6.28522 20.5005 10.8822 14.2754 11.5486C11.8998 11.8002 10.6548 10.9298 10.3399 10.6034C10.0108 10.2634 9.96069 10.243 9.83905 10.311C9.6387 10.413 9.7675 10.719 9.83905 10.8958C10.0251 11.3582 10.7907 12.1742 12.0858 12.5754C13.2307 12.9291 16.0141 13.1263 19.3843 11.8886C23.1551 10.5014 26.1031 6.64563 25.2373 3.41552C24.3715 0.137799 18.6473 -0.94344 13.2307 0.885825C10.0108 1.97386 6.51898 3.68753 4.00745 5.91801C1.02368 8.5701 0.551429 10.8754 0.744623 11.841C1.43869 15.2683 6.41165 17.4988 8.40083 19.1513C8.30065 19.2057 8.20763 19.2533 8.12893 19.2941C7.13433 19.7633 3.34201 21.647 2.3975 23.6394C1.3242 25.8971 2.56923 27.5156 3.3921 27.7332C5.94655 28.4064 8.57256 27.196 9.98216 25.1967C11.3918 23.1974 11.22 20.5997 10.5689 19.4097C10.5617 19.3961 10.5546 19.3825 10.5403 19.3689C10.7979 19.2261 11.0626 19.0765 11.3202 18.9337C11.8282 18.6481 12.3291 18.3829 12.7584 18.1652C12.5151 18.7977 12.3363 19.5525 12.2504 20.6405C12.1431 21.919 12.694 23.5782 13.4167 24.2311C13.7387 24.5167 14.1179 24.5235 14.3612 24.5235C15.2055 24.5235 15.5848 23.857 16.0069 23.0682C16.5221 22.1026 16.9872 20.9805 16.9872 20.9805C16.9872 20.9805 16.4076 24.0135 17.9818 24.0135C18.5542 24.0135 19.1338 23.3062 19.3914 22.9458V22.9526C19.3914 22.9526 19.4057 22.9322 19.4343 22.8846C19.4916 22.7962 19.5274 22.7418 19.5274 22.7418V22.7282C19.7563 22.3474 20.2715 21.4838 21.0371 20.0489C22.0246 18.1992 22.9762 15.8872 22.9762 15.8872C22.9762 15.8872 23.0621 16.4516 23.3555 17.39C23.5272 17.9408 23.885 18.5461 24.1712 19.1309C23.9422 19.4369 23.7991 19.6069 23.7991 19.6069C23.7991 19.6069 23.7991 19.6069 23.8063 19.6137C23.6202 19.8449 23.4199 20.0965 23.1981 20.3413C22.4181 21.2254 21.4879 22.2386 21.3591 22.531C21.2089 22.8778 21.2446 23.1294 21.5309 23.3334C21.7384 23.483 22.1104 23.5034 22.4897 23.483C23.1909 23.4354 23.6846 23.2722 23.9279 23.1702C24.3071 23.041 24.7508 22.8438 25.1658 22.5514C25.9314 22.0142 26.3965 21.2458 26.3536 20.2325C26.3321 19.6749 26.1389 19.1173 25.9028 18.5937C25.9743 18.4985 26.0387 18.4033 26.1103 18.3081C27.3195 16.6284 28.2569 14.7855 28.2569 14.7855C28.2569 14.7855 28.3427 15.3499 28.6361 16.2884C28.7792 16.7644 29.0726 17.2812 29.3302 17.7844C28.1925 18.6617 27.4913 19.6817 27.2408 20.3481C26.79 21.5858 27.1406 22.1434 27.8061 22.2726C28.1066 22.3338 28.5359 22.1978 28.8508 22.0686C29.2515 21.9462 29.7237 21.7354 30.1745 21.4226C30.9401 20.8853 31.6771 20.1373 31.6342 19.1241C31.6127 18.6617 31.4839 18.206 31.305 17.764C32.271 17.3832 33.516 17.1724 35.1045 17.3492C38.5105 17.73 39.1831 19.7497 39.0543 20.5997C38.9255 21.4498 38.2099 21.9122 37.9738 22.055C37.7377 22.1978 37.659 22.2454 37.6804 22.3474C37.7091 22.497 37.8236 22.4902 38.0239 22.463C38.303 22.4154 39.8127 21.7762 39.8771 20.2121C39.9845 18.2128 37.981 16.03 34.4391 16.0504ZM8.1647 24.4691C7.03416 25.6387 5.45999 26.0807 4.78023 25.7067C4.05039 25.3055 4.3366 23.5782 5.72473 22.3406C6.56906 21.5858 7.65667 20.8853 8.37936 20.4569C8.54393 20.3617 8.78722 20.2257 9.08058 20.0557C9.13067 20.0285 9.15929 20.0149 9.15929 20.0149C9.21654 19.9809 9.27378 19.9469 9.33102 19.9129C9.83905 21.681 9.35249 23.2382 8.1647 24.4691ZM16.3933 19.1513C15.9998 20.0625 15.1769 22.395 14.6761 22.2658C14.2467 22.157 13.982 20.3889 14.5902 18.6413C14.8979 17.764 15.549 16.7168 15.9282 16.3088C16.5436 15.656 17.2234 15.4383 17.3879 15.7036C17.5954 16.0504 16.6366 18.5801 16.3933 19.1513ZM23.1837 22.2386C23.0192 22.3202 22.8618 22.3746 22.7902 22.3338C22.7401 22.3066 22.8618 22.1978 22.8618 22.1978C22.8618 22.1978 23.7132 21.3274 24.0495 20.9329C24.2427 20.7017 24.4717 20.4297 24.715 20.1237V20.2121C24.715 21.2526 23.656 21.953 23.1837 22.2386ZM28.4214 21.1029C28.2998 21.0213 28.3213 20.7493 28.7291 19.8993C28.8865 19.5661 29.2586 19.0085 29.8954 18.4713C29.967 18.6889 30.0171 18.8997 30.0099 19.0969C30.0028 20.4093 29.0153 20.8989 28.4214 21.1029Z" fill="#39424E" fill-opacity="0.37"/>
</svg>
