<svg width="34" height="31" viewBox="0 0 34 31" fill="none" xmlns="http://www.w3.org/2000/svg">
<path d="M0 15.5V31H16.9871H33.9743V15.5V0H16.9871H0V15.5Z" fill="#39424E" fill-opacity="0.37"/>
<path d="M7.51295 15.6028L7.50216 16.8723H9.71319H11.9242L11.9242 22.6049V28.3374H13.4881H15.052V22.6049L15.052 16.8723H17.263H19.4741V15.6274C19.4741 14.9385 19.4579 14.3628 19.4363 14.348C19.4201 14.3284 16.7292 14.3185 13.4665 14.3234L7.52913 14.3382L7.51295 15.6028Z" fill="#130F26"/>
<path d="M27.4139 14.3022C28.2767 14.499 28.9346 14.8483 29.5386 15.4191C29.8514 15.7242 30.3152 16.2802 30.3529 16.4131C30.3637 16.4525 28.8861 17.3579 27.9909 17.8647C27.9585 17.8844 27.8291 17.7564 27.6835 17.5596C27.2467 16.979 26.7883 16.728 26.0873 16.6837C25.0572 16.6198 24.3939 17.1118 24.3993 17.9336C24.3993 18.1747 24.4371 18.3174 24.5449 18.5142C24.7714 18.9423 25.1921 19.1982 26.5133 19.7198C28.9454 20.6744 29.9862 21.3042 30.6333 22.1998C31.356 23.1987 31.5177 24.7929 31.027 25.9788C30.4877 27.268 29.1503 28.1439 27.2683 28.4342C26.6858 28.5277 25.3053 28.5129 24.6797 28.4096C23.3154 28.1882 22.0211 27.5731 21.223 26.7661C20.9102 26.4512 20.3008 25.6295 20.3386 25.5704C20.3548 25.5507 20.495 25.472 20.6514 25.3883C20.8024 25.3096 21.374 25.0095 21.9133 24.7241L22.8894 24.2074L23.0943 24.4829C23.3801 24.8815 24.0057 25.4277 24.3831 25.6098C25.4671 26.1314 26.9555 26.0575 27.6889 25.4572C28.0017 25.1964 28.1311 24.9258 28.1311 24.5272C28.1311 24.168 28.0826 24.0106 27.8776 23.7399C27.6134 23.3955 27.0741 23.1052 25.5426 22.4999C23.7899 21.811 23.035 21.3829 22.3447 20.7039C21.9456 20.3102 21.5681 19.6804 21.4117 19.1539C21.2823 18.716 21.25 17.6187 21.3524 17.1758C21.7137 15.6307 22.9918 14.5531 24.8361 14.2333C25.4347 14.1299 26.8261 14.1693 27.4139 14.3022Z" fill="#130F26"/>
</svg>
